<?xml version="1.0" encoding="utf-8"?>
<!-- Generator: Adobe Illustrator 22.1.0, SVG Export Plug-In . SVG Version: 6.00 Build 0)  -->
<svg version="1.1" id="Layer_1" xmlns="http://www.w3.org/2000/svg" xmlns:xlink="http://www.w3.org/1999/xlink" x="0px" y="0px"
	 viewBox="0 0 600 338" style="enable-background:new 0 0 600 338;" xml:space="preserve">
<style type="text/css">
	.st0{fill:#FFFFFF;}
</style>
<g>
	<g>
		<path d="M0,338C0,225.3,0,112.7,0,0c200,0,400,0,600,0c0,112.7,0,225.3,0,338C400,338,200,338,0,338z M24.4,156.4
			c1.4,0.3,2,0.6,2.6,0.6c14,0,28,0.3,42-0.1c10-0.3,19.3-3.4,27-10.2c14.8-13.1,17.6-30,14.1-48.3C106.3,78,93.8,65.8,73.4,64
			c-15.7-1.4-31.6-0.6-47.4-0.8c-0.1,0-0.3,0.4-0.5,1c0.8,0.3,1.5,0.8,2.2,0.7c9.7-0.5,8.4,3,8.4,9.6c0,22.8,0,45.6,0,68.5
			c0,10.4,0,10.4-10.2,12.2C25.6,155.3,25.4,155.6,24.4,156.4z M151.4,207.2c1.4,0.5,1.9,0.8,2.4,0.8c9,1,9,1,9,10.2
			c0,22.1,0,44.3,0,66.4c0,9.4,0,9.4-9.4,11.3c-0.4,0.1-0.8,0.4-1.2,0.6c0,0.3,0,0.5,0,0.8c11.5,0,23.1,0,34.6,0
			c-1.1-1.1-2.2-1.4-3.4-1.5c-7.3-0.6-7.6-0.9-7.7-8.4c0-7.3,0-14.6,0-22c0-4.4,0-8.8,0-13.5c5.1,0,9.4,0.2,13.7,0
			c13.7-0.7,23.9-10.6,24.3-23.6c0.4-12.2-7.8-21-22.2-22c-12.6-0.9-25.3-0.3-37.9-0.3C153.2,206.1,152.7,206.6,151.4,207.2z
			 M295.5,156.7c0.1-0.3,0.2-0.6,0.2-0.8c-0.7-0.3-1.4-0.9-2-0.8c-5.2,0.5-5.8-2.3-5.7-6.7c0.3-12.2-0.2-24.3,0.3-36.5
			c0.1-3,2.2-6.5,4.3-8.9c3-3.2,7.3-3.8,11.6-2.2c4.2,1.6,5.5,5.3,5.6,9.2c0.3,11.8,0.3,23.6,0.4,35.5c0.1,8.3,0,8.3-7.9,9.6
			c-0.3,0.1-0.6,0.6-1.2,1.4c9.5,0,18.6,0,27.6,0c0.1-1.1-0.4-1.5-0.8-1.4c-6.5,0.7-6.5-3.4-6.5-8.1c0.1-12,0-24-0.5-35.9
			c-0.4-10.1-6-15-16-15.2c-6.9-0.1-12,3.1-17,8.1c-0.4-3-0.7-5.4-0.9-7.1c-7,2.2-13.5,4.2-20.8,6.5c1.7,0.3,2.5,0.5,3.4,0.6
			c6.8,0.4,6.8,0.4,6.8,7.1c0.1,11.7,0.2,23.3,0.3,35c0,7.8,0,7.8-7.5,9.2c-0.3,0.1-0.5,0.7-0.9,1.5
			C277.6,156.7,286.6,156.7,295.5,156.7z M174.1,150.8c-0.3-0.5-0.6-0.9-0.9-1.4c-1.4,0.8-2.7,1.8-4.1,2.5c-4.1,2.1-6.8,0.8-7.6-3.7
			c-0.3-1.5-0.2-3-0.2-4.5c-0.1-11.5-0.1-23-0.2-34.5c0-5.1-1.9-9.3-6.8-11.2c-7.9-3.1-16-3.3-23.8,0.3c-6.2,2.9-9.6,9.6-8.4,15.6
			c0.8,3.8,3.4,6.1,7,5.6c2.1-0.3,4.8-2.4,5.6-4.4c1.3-3.3-0.4-6.1-4.2-7.2c-0.6-0.2-1-0.6-1.4-0.9c1.3-6.1,4.7-8.9,10.4-8.9
			c5.5-0.1,8.6,2.3,9.9,7.9c0.6,2.9,0.8,5.9,0.8,8.9c0.2,8.1,0.1,8.1-7.9,10.1c-6.9,1.8-13.3,4.5-17.5,10.6
			c-3.3,4.7-4.1,9.9-1.4,15.1c2.6,5,7.4,7.1,12.6,6c5.1-1.1,9.8-3.6,14.8-5.6c2.3,4.6,3.9,5.8,9.3,5.8
			C165.8,157,170.5,155,174.1,150.8z M520.9,268.8c0.1,19.4,16,32.9,33.9,28.6c10.5-2.5,18.7-11.8,20.2-22.9
			c1.9-14.5-3.4-26.9-14.3-32.5C541.9,232.4,520.6,245.4,520.9,268.8z M395.9,268.8c0.1,19.4,16,32.9,33.9,28.7
			c10.7-2.6,18.9-12,20.2-23.4c1.8-14.6-3.8-26.6-14.8-32.3C416.4,232,395.9,246.1,395.9,268.8z M217.9,268.6
			c0,19.5,15.9,33,33.8,28.8c10.7-2.5,19-11.9,20.4-23.3c1.8-14.6-3.7-26.6-14.7-32.3C238.5,232,217.9,246,217.9,268.6z
			 M362.2,240.5c0,0.4,0,0.9,0,1.3c1.9,0.4,3.8,0.8,5.9,1.2c0,15,0,29.8,0,44.6c0,7.4,0,7.4-7.5,8.4c-0.5,0.1-1,0.5-1.5,0.8
			c0.1,0.4,0.1,0.8,0.2,1.2c4.9,0,9.7,0,14.6,0s9.8,0,14.7,0c0.2-0.6,0.3-1.1,0.5-1.7c-1.3-0.5-2.6-1.4-3.9-1.3
			c-5.3,0.5-6.3-2.1-6.2-6.8c0.3-10.8,0.1-21.7,0.1-32.5c0-4.4,0-8.9,0-13.4c4-0.3,7.4-0.5,10.8-0.8c0-0.5-0.1-1-0.1-1.6
			c-3.4,0-6.8,0-11.3,0c0.9-8.5,1.3-16.5,2.6-24.3c0.7-4.4,3.8-7.5,8.7-7.5c3.2,0,5.4,1.1,3.3,4.9c-1.6,3-1.8,6.3,1.4,7.8
			c2,0.9,6,0.9,7.1-0.4c1.5-1.9,2.2-5.6,1.5-8c-1.3-4.4-5.4-6.1-9.8-6.4c-12.1-1-20.6,5.7-23.2,18.5c-1,5-1.4,10.1-2,15.1
			C365.9,240,364.1,240.2,362.2,240.5z M230.7,156.5c0.1-0.4,0.2-0.9,0.3-1.3c-0.9-0.4-1.9-1.2-2.8-1.1c-5.6,0.6-6.4-2.3-6.4-7.1
			c0.2-25.1,0.1-50.3,0.1-75.4c0-2.8-0.4-5.5-0.6-8.2c-6.8,1.6-13,3.1-19.2,4.6c1.7,1,3.1,1.1,4.6,1.1c3-0.2,4.2,1.2,4.2,4.1
			c0,25.6-0.1,51.3,0,76.9c0,2.9-1.1,4.2-4.1,4.2c-1.5,0-3,0.7-4.5,1c0.1,0.4,0.2,0.9,0.3,1.3C212,156.5,221.3,156.5,230.7,156.5z
			 M171.3,67.9c0,0.3,0.1,0.6,0.1,0.9c1.5,0.1,3,0.2,4.4,0.2c3-0.2,4.1,1.3,4.1,4.2c0,25.6-0.1,51.3,0,76.9c0,3-1.3,4.1-4.2,4.1
			c-1.5,0-2.9,0.7-4.4,1.1c0.1,0.3,0.2,0.7,0.3,1c9.4,0,18.8,0,28.3,0c-0.8-1.6-1.8-2.4-2.7-2.3c-5.8,0.7-6.3-2.6-6.2-7.3
			c0.2-25.1,0.1-50.3,0.1-75.4c0-2.7-0.4-5.5-0.6-8.1C183.6,64.9,177.4,66.4,171.3,67.9z M455.3,296.4c0.1,0.3,0.2,0.6,0.4,0.9
			c9.2,0,18.3,0,28.9,0c-1.8-1.4-2.4-2.1-3-2.2c-7.1-1.6-7.1-1.6-7.1-9c0-23.8,0-47.7,0-71.5c0-2.8-0.4-5.5-0.6-8.3
			c-6.6,1.6-12.7,3.1-19.8,4.8c9.7,1.9,9.7,1.9,9.7,10.9c0,22.2-0.1,44.3,0.1,66.5c0,4.3-0.5,7.3-5.8,6.6
			C457.2,295.1,456.2,296,455.3,296.4z M404.7,95.6c-0.3-0.3-0.7-0.6-1-0.9c-2.7,5.2-6.3,3.3-10,2.1c-8.5-2.7-16.9,0.9-20.6,8.6
			c-4,8.2-1.6,16.6,6.4,21.6c2.6,1.7,5.7,2.7,8.5,4.1c3.1,1.5,6.5,2.6,9.4,4.6c4.2,2.9,5.5,7.7,3.8,12.4c-1.7,5-5.6,6.7-10.5,6.7
			c-7.9-0.1-14.1-5.1-16.4-12.9c-0.4-1.4-0.8-2.8-1.3-4.2c-0.4,0.1-0.8,0.2-1.3,0.2c0,6.2,0,12.5,0,20.2c3.3-5.4,6.7-4.5,10.3-2.8
			c1.4,0.6,2.8,1,4.3,1.3c10.9,2.4,21.1-4.2,23.2-15c1.4-7.3-1.5-13.6-8.6-17.4c-5.3-2.8-10.9-4.9-16.2-7.6
			c-5.4-2.8-7.4-7.6-5.4-12.4c1.9-4.6,7.2-7,12.5-5.6s8.3,5.2,10.2,10.1c0.6,1.6,1.2,3.1,1.8,4.7c0.3-0.1,0.7-0.2,1-0.3
			C404.7,107.2,404.7,101.4,404.7,95.6z M277.3,244.2c10.9,2.8,10.9,2.8,10.9,13.5c0,9.7,0,19.3,0,29c0,8.3,0,8.3-8,9.7
			c-0.2,0-0.3,0.5-0.6,1.2c9.5,0,18.8,0,28.2,0c-0.8-1.1-1.9-1.7-2.8-1.6c-4.7,0.5-5.9-1.8-5.8-6.2c0.3-8.6-0.3-17.3,0.2-25.9
			c0.3-5.5,1.5-11.2,3.3-16.4c1.1-3.3,4.2-5.5,8.4-2.9c-0.4,0.9-0.7,1.5-1,2.1c-2,4.1-1.2,7.2,2,8.3c3.7,1.3,7.5-0.8,8.6-4.7
			c1.5-5.2-2.3-10.3-7.9-11.1c-5.6-0.8-9.2,2.4-12.7,6.6c-0.5-2.6-0.8-4.5-1-5.7C291.9,241.3,285.1,242.7,277.3,244.2z M340.5,230.6
			c-6.5,4.2-12.7,8.2-18.8,12.1c0.3,0,0.9,0.2,1.5,0.2c6.8,0.3,6.8,0.3,6.8,6.9c0,12.3-0.1,24.6,0,36.9c0.1,7.7,3.3,10.9,10.9,11.1
			c1.8,0.1,3.7,0.2,5.5-0.1c5.4-1,9.9-3.4,12.3-8.6c-2.7,0.9-5,2.6-7.5,3.7c-5.3,2.3-9.4,0.4-9.6-5.2c-0.4-14.7-0.1-29.5-0.1-44.4
			c4.7-1.3,10.5,1.4,14.8-3.5c-5,0.4-9.9,0.8-15.1,1.3C341,236.8,340.8,233.6,340.5,230.6z M234.6,155.4c1,0.7,1.5,1.3,2,1.3
			c8.2,0.1,16.5,0.2,24.7,0.2c1,0,1.9-0.9,4-2c-2.1-0.6-2.8-0.8-3.4-0.9c-6.9-0.7-6.9-0.7-6.9-7.7c0-14.1,0-28.3,0-42.4
			c0-2.5-0.5-5.1-0.7-7.1c-6.7,1.8-12.7,3.5-19.3,5.3c1.1,0.5,1.8,1,2.3,0.9c5.8-1.1,6.7,2.3,6.7,6.9c-0.1,12.3,0,24.6-0.1,36.9
			c0,4.3-0.4,8.1-6.4,7.3C236.7,153.9,235.9,154.8,234.6,155.4z M515.2,297.1c0-0.5-0.1-1-0.1-1.6c-0.6-0.2-1.2-0.5-1.8-0.6
			c-6.8-0.8-6.8-0.8-6.8-7.8c0-13,0-25.9,0-38.9c0-2.9-0.4-5.8-0.6-8.8c-6.5,1.5-12.4,2.9-18.4,4.3c0.2,0.3,0.3,0.7,0.6,0.8
			c0.4,0.2,1,0.5,1.4,0.4c5.7-1,6.1,2.7,6.1,6.8c0,12.1-0.1,24.3,0,36.4c0,4.3-0.8,7.5-6.2,6.9c-0.7-0.1-1.5,0.8-2.2,1.2
			c0.1,0.3,0.2,0.6,0.2,0.8C496.6,297.1,505.9,297.1,515.2,297.1z M339.3,90.8c7.4,2.6,16.6-4,17.9-12.2c1.5-9-3-15.5-10.7-15.6
			c-4.4-0.1-7.4,1.8-8.5,6.1c-0.9,3.4-0.1,6.5,3.1,8.1c3.7,1.9,7.2,1.2,9.6-2.8C353.1,82.2,352.4,83.2,339.3,90.8z M254.2,73
			c0.1-4.1-1.9-6-6-6c-4.2,0-6.1,2.3-6,6.2c0.1,3.7,2.2,5.7,6,5.8C252.2,79.1,254.3,77.2,254.2,73z M505.9,216c-0.2-4-2.1-6.1-6.3-6
			c-4.1,0-5.7,2.2-5.7,5.9c0,4,2.2,6.1,6.2,6.1C504.2,222,505.7,219.6,505.9,216z"/>
		<path class="st0" d="M24.4,156.4c1-0.8,1.2-1.1,1.5-1.2C36,153.4,36,153.4,36,143c0-22.8,0-45.6,0-68.5c0-6.5,1.3-10.1-8.4-9.6
			c-0.7,0-1.4-0.5-2.2-0.7c0.3-0.5,0.4-1,0.5-1c15.8,0.2,31.7-0.6,47.4,0.8c20.5,1.8,33,13.9,36.8,34.2c3.4,18.3,0.7,35.2-14.1,48.3
			c-7.7,6.8-17,9.9-27,10.2c-14,0.5-28,0.1-42,0.1C26.4,157,25.8,156.7,24.4,156.4z M49.5,110.5c0,12.5,0,25,0,37.5
			c0,2.8,0.2,5.4,3.8,6c18.1,3.3,34-1.7,40.2-22.4c3.4-11.4,3.5-23.1,1.9-34.7c-0.7-5.4-2.1-10.9-4.5-15.7
			C84,67.1,71.1,64.7,57,65.2c-6.4,0.3-7.5,1.3-7.5,7.8C49.4,85.5,49.5,98,49.5,110.5z"/>
		<path class="st0" d="M151.4,207.2c1.3-0.6,1.8-1.1,2.3-1.1c12.6,0,25.3-0.6,37.9,0.3c14.4,1,22.6,9.7,22.2,22
			c-0.4,13-10.6,23-24.3,23.6c-4.3,0.2-8.6,0-13.7,0c0,4.6,0,9,0,13.5c0,7.3,0,14.6,0,22c0,7.5,0.3,7.8,7.7,8.4
			c1.2,0.1,2.3,0.4,3.4,1.5c-11.5,0-23.1,0-34.6,0c0-0.3,0-0.5,0-0.8c0.4-0.2,0.8-0.5,1.2-0.6c9.4-1.9,9.4-1.9,9.4-11.3
			c0-22.1,0-44.3,0-66.4c0-9.2,0-9.2-9-10.2C153.3,207.9,152.8,207.6,151.4,207.2z M175.9,249.3c10.7,1.5,19.6-3,22.4-11.3
			c2.3-6.8,2.2-13.8-0.3-20.6c-2.8-7.4-11.5-11.5-18.9-8.6c-1.4,0.6-3.1,2.8-3.1,4.3C175.8,225,175.9,237,175.9,249.3z"/>
		<path class="st0" d="M295.5,156.7c-8.9,0-17.8,0-27.1,0c0.4-0.7,0.6-1.4,0.9-1.5c7.5-1.4,7.5-1.4,7.5-9.2
			c-0.1-11.7-0.2-23.3-0.3-35c-0.1-6.7,0-6.7-6.8-7.1c-0.9,0-1.7-0.3-3.4-0.6c7.4-2.3,13.8-4.3,20.8-6.5c0.2,1.7,0.5,4.2,0.9,7.1
			c5-5,10.1-8.2,17-8.1c10,0.2,15.6,5.1,16,15.2c0.5,12,0.5,24,0.5,35.9c0,4.8,0,8.8,6.5,8.1c0.4,0,0.9,0.3,0.8,1.4
			c-9.1,0-18.1,0-27.6,0c0.6-0.7,0.9-1.3,1.2-1.4c7.9-1.3,8-1.3,7.9-9.6c-0.1-11.8-0.1-23.6-0.4-35.5c-0.1-3.9-1.4-7.6-5.6-9.2
			c-4.3-1.6-8.6-1.1-11.6,2.2c-2.2,2.3-4.2,5.8-4.3,8.9c-0.5,12.1,0,24.3-0.3,36.5c-0.1,4.4,0.6,7.2,5.7,6.7c0.6-0.1,1.4,0.5,2,0.8
			C295.6,156.2,295.5,156.4,295.5,156.7z"/>
		<path class="st0" d="M174.1,150.8c-3.6,4.2-8.3,6.2-14,6.2c-5.4,0-7.1-1.2-9.3-5.8c-5,2-9.8,4.5-14.8,5.6c-5.2,1.1-10-1.1-12.6-6
			c-2.7-5.2-1.9-10.4,1.4-15.1c4.2-6.1,10.6-8.8,17.5-10.6c8-2,8.1-2,7.9-10.1c-0.1-3-0.2-6-0.8-8.9c-1.2-5.6-4.4-8-9.9-7.9
			c-5.7,0.1-9.1,2.8-10.4,8.9c0.4,0.3,0.9,0.8,1.4,0.9c3.7,1.1,5.4,3.9,4.2,7.2c-0.8,2-3.5,4.1-5.6,4.4c-3.6,0.5-6.3-1.8-7-5.6
			c-1.2-6,2.2-12.7,8.4-15.6c7.8-3.6,15.9-3.4,23.8-0.3c4.9,1.9,6.8,6.2,6.8,11.2c0.1,11.5,0.1,23,0.2,34.5c0,1.5,0,3,0.2,4.5
			c0.8,4.5,3.5,5.8,7.6,3.7c1.4-0.7,2.7-1.7,4.1-2.5C173.4,149.9,173.7,150.3,174.1,150.8z M150.1,127.1c-10.2,1.2-16.2,5.5-17.6,12
			c-1.2,5.7,2,11,7.1,11.7c5,0.7,10.2-3.6,10.5-9C150.3,137,150.1,132.2,150.1,127.1z"/>
		<path class="st0" d="M520.9,268.8c-0.4-23.4,21-36.4,39.7-26.8c11,5.6,16.3,18,14.3,32.5c-1.5,11.1-9.7,20.4-20.2,22.9
			C537,301.7,521,288.2,520.9,268.8z M564.3,268.9c-0.3-0.1-0.5-0.1-0.8-0.2c-0.2-3.3-0.3-6.6-0.7-9.9c-0.3-2.1-0.8-4.2-1.5-6.3
			c-2.5-8-6.2-11.2-12.6-11.3c-6.1-0.1-10.7,3.5-13.2,10.8c-2.9,8.3-3.4,17-1.7,25.6c0.9,4.4,2.4,9.1,4.9,12.8
			c5.9,8.5,17.2,7.3,20.9-2.3C562,282,562.8,275.3,564.3,268.9z"/>
		<path class="st0" d="M395.9,268.8c-0.1-22.7,20.4-36.7,39.3-27c11,5.7,16.6,17.7,14.8,32.3c-1.4,11.4-9.5,20.8-20.2,23.4
			C411.9,301.7,396,288.2,395.9,268.8z M439.2,269.3c-1.2-6.9-1.8-12.4-3.2-17.6c-2.1-7.4-6-10.4-12.1-10.5
			c-5.9-0.2-10.3,3-12.9,9.8c-3.4,8.6-3.9,17.6-2.1,26.5c0.9,4.7,2.7,9.8,5.5,13.6c5.6,7.7,16.6,6.4,20.1-2.4
			C436.9,282.1,437.8,275,439.2,269.3z"/>
		<path class="st0" d="M217.9,268.6c0-22.6,20.6-36.6,39.4-26.8c11,5.7,16.5,17.8,14.7,32.3c-1.4,11.4-9.6,20.8-20.4,23.3
			C233.8,301.6,217.9,288.1,217.9,268.6z M261.2,269.7c-1.2-6.8-1.7-12.4-3.2-17.8c-2.1-7.4-5.9-10.4-12-10.7
			c-5.9-0.2-10.5,2.9-13,9.6c-4.2,11.3-4.2,22.8-0.4,34.2c0.8,2.4,2.4,4.8,4.1,6.7c6.1,6.7,16.2,5.4,19.6-2.9
			C258.8,282.4,259.8,275.4,261.2,269.7z"/>
		<path class="st0" d="M362.2,240.5c1.8-0.3,3.7-0.5,5.8-0.9c0.7-5,1.1-10.1,2-15.1c2.5-12.8,11.1-19.6,23.2-18.5
			c4.4,0.4,8.5,2,9.8,6.4c0.7,2.4,0.1,6.1-1.5,8c-1,1.3-5.1,1.3-7.1,0.4c-3.3-1.5-3.1-4.8-1.4-7.8c2.1-3.8-0.1-4.9-3.3-4.9
			c-4.9,0.1-8,3.1-8.7,7.5c-1.2,7.8-1.7,15.7-2.6,24.3c4.5,0,7.9,0,11.3,0c0,0.5,0.1,1,0.1,1.6c-3.4,0.2-6.7,0.5-10.8,0.8
			c0,4.5,0,8.9,0,13.4c0,10.8,0.2,21.7-0.1,32.5c-0.1,4.8,0.9,7.3,6.2,6.8c1.2-0.1,2.6,0.8,3.9,1.3c-0.2,0.6-0.3,1.1-0.5,1.7
			c-4.9,0-9.8,0-14.7,0c-4.9,0-9.7,0-14.6,0c-0.1-0.4-0.1-0.8-0.2-1.2c0.5-0.3,1-0.7,1.5-0.8c7.5-1,7.5-1,7.5-8.4
			c0-14.8,0-29.6,0-44.6c-2.2-0.4-4-0.8-5.9-1.2C362.2,241.4,362.2,241,362.2,240.5z"/>
		<path class="st0" d="M230.7,156.5c-9.4,0-18.7,0-28.1,0c-0.1-0.4-0.2-0.9-0.3-1.3c1.5-0.4,3-1,4.5-1c3,0,4.1-1.3,4.1-4.2
			c0-25.6,0-51.3,0-76.9c0-2.9-1.2-4.3-4.2-4.1c-1.5,0.1-2.9-0.1-4.6-1.1c6.2-1.5,12.3-2.9,19.2-4.6c0.2,2.7,0.6,5.4,0.6,8.2
			c0,25.1,0.1,50.3-0.1,75.4c0,4.9,0.8,7.7,6.4,7.1c0.9-0.1,1.8,0.7,2.8,1.1C230.9,155.6,230.8,156.1,230.7,156.5z"/>
		<path class="st0" d="M171.3,67.9c6.1-1.5,12.2-3,19-4.7c0.2,2.6,0.6,5.4,0.6,8.1c0,25.1,0.1,50.3-0.1,75.4c0,4.7,0.5,7.9,6.2,7.3
			c0.9-0.1,1.9,0.7,2.7,2.3c-9.4,0-18.8,0-28.3,0c-0.1-0.3-0.2-0.7-0.3-1c1.5-0.4,2.9-1.1,4.4-1.1c2.9,0,4.2-1.1,4.2-4.1
			c0-25.6,0-51.3,0-76.9c0-2.9-1.1-4.4-4.1-4.2c-1.5,0.1-3-0.1-4.4-0.2C171.4,68.5,171.4,68.2,171.3,67.9z"/>
		<path class="st0" d="M455.3,296.4c0.9-0.4,1.9-1.3,2.8-1.2c5.3,0.7,5.8-2.4,5.8-6.6c-0.1-22.2-0.1-44.3-0.1-66.5
			c0-9.1,0-9.1-9.7-10.9c7.1-1.7,13.2-3.2,19.8-4.8c0.2,2.8,0.6,5.5,0.6,8.3c0,23.8,0,47.7,0,71.5c0,7.4,0,7.3,7.1,9
			c0.7,0.2,1.2,0.8,3,2.2c-10.6,0-19.8,0-28.9,0C455.6,297,455.4,296.7,455.3,296.4z"/>
		<path class="st0" d="M404.7,95.6c0,5.8,0,11.6,0,17.3c-0.3,0.1-0.7,0.2-1,0.3c-0.6-1.6-1.2-3.1-1.8-4.7
			c-1.9-4.9-4.9-8.7-10.2-10.1c-5.3-1.4-10.7,1-12.5,5.6c-1.9,4.8,0,9.6,5.4,12.4c5.3,2.7,11,4.8,16.2,7.6c7.2,3.9,10,10.1,8.6,17.4
			c-2.1,10.8-12.3,17.4-23.2,15c-1.5-0.3-2.9-0.7-4.3-1.3c-3.6-1.6-7-2.6-10.3,2.8c0-7.7,0-14,0-20.2c0.4-0.1,0.8-0.2,1.3-0.2
			c0.4,1.4,0.9,2.8,1.3,4.2c2.2,7.9,8.5,12.8,16.4,12.9c4.9,0.1,8.8-1.7,10.5-6.7c1.6-4.7,0.4-9.5-3.8-12.4
			c-2.8-1.9-6.2-3.1-9.4-4.6c-2.8-1.3-5.9-2.4-8.5-4.1c-8-5-10.3-13.4-6.4-21.6c3.7-7.7,12.2-11.3,20.6-8.6c3.7,1.2,7.3,3.1,10-2.1
			C404,95.1,404.3,95.4,404.7,95.6z"/>
		<path class="st0" d="M277.3,244.2c7.8-1.5,14.6-2.9,21.6-4.2c0.2,1.2,0.6,3.1,1,5.7c3.6-4.2,7.1-7.4,12.7-6.6
			c5.5,0.8,9.3,6,7.9,11.1c-1.1,3.9-5,5.9-8.6,4.7c-3.2-1.1-4-4.2-2-8.3c0.3-0.6,0.6-1.2,1-2.1c-4.2-2.6-7.2-0.4-8.4,2.9
			c-1.8,5.3-3,10.9-3.3,16.4c-0.5,8.6,0.1,17.3-0.2,25.9c-0.2,4.4,1,6.7,5.8,6.2c1-0.1,2,0.5,2.8,1.6c-9.3,0-18.6,0-28.2,0
			c0.4-0.7,0.4-1.2,0.6-1.2c8-1.4,8-1.4,8-9.7c0-9.7,0-19.3,0-29C288.2,246.9,288.2,246.9,277.3,244.2z"/>
		<path class="st0" d="M340.5,230.6c0.2,2.9,0.5,6.2,0.8,10.4c5.1-0.4,10.1-0.9,15.1-1.3c-4.3,5-10.1,2.3-14.8,3.5
			c0,15-0.3,29.7,0.1,44.4c0.2,5.7,4.2,7.6,9.6,5.2c2.5-1.1,4.8-2.8,7.5-3.7c-2.4,5.2-6.9,7.6-12.3,8.6c-1.8,0.3-3.7,0.2-5.5,0.1
			c-7.7-0.3-10.9-3.4-10.9-11.1c-0.1-12.3,0-24.6,0-36.9c0-6.6,0-6.6-6.8-6.9c-0.6,0-1.2-0.2-1.5-0.2
			C327.8,238.8,334,234.8,340.5,230.6z"/>
		<path class="st0" d="M234.6,155.4c1.3-0.6,2.1-1.5,2.8-1.4c6,0.8,6.4-3,6.4-7.3c0-12.3,0-24.6,0.1-36.9c0-4.6-0.9-8-6.7-6.9
			c-0.5,0.1-1.1-0.4-2.3-0.9c6.6-1.8,12.6-3.5,19.3-5.3c0.2,2.1,0.7,4.6,0.7,7.1c0.1,14.1,0,28.3,0,42.4c0,7,0,6.9,6.9,7.7
			c0.6,0.1,1.3,0.3,3.4,0.9c-2.1,1.1-3,2-4,2c-8.2,0.1-16.5,0-24.7-0.2C236.1,156.7,235.6,156.1,234.6,155.4z"/>
		<path class="st0" d="M515.2,297.1c-9.3,0-18.6,0-27.9,0c-0.1-0.3-0.2-0.6-0.2-0.8c0.7-0.4,1.5-1.3,2.2-1.2
			c5.4,0.7,6.3-2.5,6.2-6.9c-0.1-12.1,0-24.3,0-36.4c0-4.1-0.4-7.8-6.1-6.8c-0.4,0.1-1-0.2-1.4-0.4c-0.2-0.1-0.3-0.5-0.6-0.8
			c6-1.4,12-2.8,18.4-4.3c0.2,2.9,0.5,5.9,0.6,8.8c0.1,13,0,25.9,0,38.9c0,7,0,7,6.8,7.8c0.6,0.1,1.2,0.4,1.8,0.6
			C515.1,296,515.2,296.5,515.2,297.1z"/>
		<path class="st0" d="M339.3,90.8c13.1-7.6,13.8-8.6,11.4-16.4c-2.4,4-5.9,4.7-9.6,2.8c-3.2-1.6-4-4.8-3.1-8.1
			c1.2-4.2,4.2-6.1,8.5-6.1c7.7,0.1,12.2,6.6,10.7,15.6C355.9,86.9,346.7,93.4,339.3,90.8z"/>
		<path class="st0" d="M254.2,73c0.1,4.2-1.9,6.1-6.1,6c-3.8-0.1-5.9-2.2-6-5.8c-0.1-3.9,1.8-6.2,6-6.2
			C252.3,67,254.3,68.9,254.2,73z"/>
		<path class="st0" d="M505.9,216c-0.2,3.6-1.7,6-5.7,6s-6.2-2.1-6.2-6.1c0-3.7,1.6-5.9,5.7-5.9C503.8,209.9,505.6,212,505.9,216z"
			/>
		<path d="M49.5,110.5c0-12.5-0.1-25,0-37.5c0-6.4,1.1-7.5,7.5-7.8c14-0.6,26.9,1.9,33.8,16c2.4,4.8,3.8,10.4,4.5,15.7
			c1.6,11.6,1.6,23.3-1.9,34.7c-6.3,20.8-22.2,25.8-40.2,22.4c-3.5-0.6-3.8-3.2-3.8-6C49.5,135.5,49.5,123,49.5,110.5z"/>
		<path d="M175.9,249.3c0-12.3-0.1-24.2,0.1-36.2c0-1.5,1.7-3.7,3.1-4.3c7.3-2.9,16.1,1.1,18.9,8.6c2.5,6.8,2.6,13.7,0.3,20.6
			C195.5,246.3,186.6,250.8,175.9,249.3z"/>
		<path d="M150.1,127.1c0,5.2,0.2,10-0.1,14.7c-0.3,5.4-5.4,9.6-10.5,9c-5.1-0.7-8.4-6-7.1-11.7
			C133.9,132.6,139.9,128.3,150.1,127.1z"/>
		<path d="M564.3,268.9c-1.5,6.4-2.3,13.1-4.7,19.2c-3.7,9.6-15.1,10.8-20.9,2.3c-2.5-3.7-4-8.4-4.9-12.8
			c-1.7-8.6-1.2-17.2,1.7-25.6c2.6-7.4,7.1-10.9,13.2-10.8c6.4,0.1,10.1,3.4,12.6,11.3c0.6,2.1,1.2,4.2,1.5,6.3
			c0.4,3.3,0.5,6.6,0.7,9.9C563.8,268.8,564,268.8,564.3,268.9z"/>
		<path d="M439.2,269.3c-1.4,5.7-2.3,12.9-4.9,19.4c-3.5,8.8-14.4,10-20.1,2.4c-2.8-3.8-4.5-8.9-5.5-13.6
			c-1.8-8.9-1.3-17.9,2.1-26.5c2.7-6.8,7.1-9.9,12.9-9.8c6.1,0.2,10,3.2,12.1,10.5C437.5,256.9,438,262.4,439.2,269.3z"/>
		<path d="M261.2,269.7c-1.4,5.8-2.4,12.8-5,19.1c-3.4,8.4-13.4,9.6-19.6,2.9c-1.7-1.9-3.3-4.3-4.1-6.7c-3.8-11.4-3.8-22.9,0.4-34.2
			c2.5-6.8,7.1-9.9,13-9.6c6.1,0.2,10,3.3,12,10.7C259.5,257.2,260,262.9,261.2,269.7z"/>
	</g>
</g>
</svg>
